<svg width="16" height="17" viewBox="0 0 16 17" fill="none" xmlns="http://www.w3.org/2000/svg">
<path d="M10.9174 8.57281C11.7017 7.95571 12.2742 7.10948 12.5552 6.15185C12.8362 5.19422 12.8118 4.17281 12.4853 3.22973C12.1587 2.28664 11.5464 1.46878 10.7334 0.889924C9.92041 0.311067 8.94722 0 7.94921 0C6.9512 0 5.97801 0.311067 5.16502 0.889924C4.35203 1.46878 3.73968 2.28664 3.41316 3.22973C3.08664 4.17281 3.06218 5.19422 3.3432 6.15185C3.62421 7.10948 4.19671 7.95571 4.98107 8.57281C3.63706 9.11127 2.46437 10.0044 1.58802 11.1569C0.711658 12.3094 0.164484 13.6781 0.0048257 15.1171C-0.00673118 15.2222 0.00251882 15.3285 0.0320474 15.43C0.0615759 15.5315 0.110805 15.6262 0.176923 15.7086C0.310456 15.8752 0.504677 15.9818 0.71686 16.0052C0.929044 16.0285 1.14181 15.9666 1.30835 15.8331C1.47489 15.6995 1.58156 15.5053 1.6049 15.2931C1.78058 13.7292 2.5263 12.2848 3.69958 11.236C4.87286 10.1871 6.39145 9.60728 7.96521 9.60728C9.53897 9.60728 11.0576 10.1871 12.2308 11.236C13.4041 12.2848 14.1498 13.7292 14.3255 15.2931C14.3473 15.4897 14.4411 15.6713 14.5888 15.8028C14.7366 15.9343 14.9278 16.0064 15.1256 16.0052H15.2136C15.4233 15.981 15.615 15.875 15.7468 15.7102C15.8787 15.5453 15.9401 15.335 15.9176 15.1251C15.7572 13.682 15.2071 12.3098 14.3262 11.1555C13.4453 10.0012 12.2669 9.10842 10.9174 8.57281ZM7.94921 8.00478C7.31628 8.00478 6.69756 7.8171 6.1713 7.46546C5.64504 7.11382 5.23486 6.61403 4.99265 6.02928C4.75044 5.44452 4.68707 4.80108 4.81054 4.18031C4.93402 3.55954 5.23881 2.98933 5.68636 2.54178C6.13391 2.09423 6.70412 1.78944 7.32489 1.66596C7.94566 1.54249 8.5891 1.60586 9.17386 1.84807C9.75861 2.09028 10.2584 2.50046 10.61 3.02672C10.9617 3.55298 11.1494 4.1717 11.1494 4.80463C11.1494 5.65336 10.8122 6.46734 10.2121 7.06748C9.61192 7.66763 8.79794 8.00478 7.94921 8.00478Z" fill="#8146FF"/>
</svg>
